<svg xmlns="http://www.w3.org/2000/svg" xmlns:xlink="http://www.w3.org/1999/xlink" width="774.736" height="666.992" viewBox="0 0 774.736 666.992">
  <defs>
    <linearGradient id="linear-gradient" x1="0.5" y1="0.925" x2="0.5" gradientUnits="objectBoundingBox">
      <stop offset="0" stop-color="#fff"/>
      <stop offset="1" stop-color="#fff" stop-opacity="0"/>
    </linearGradient>
  </defs>
  <g id="Group_924" data-name="Group 924" transform="translate(-1040.265 -9279)">
    <path id="Union_3" data-name="Union 3" d="M752.652.117C506.259-.028,256.339.026,9.9.258,7.246-.117,3.325.726,1.323,3.045A5.446,5.446,0,0,0,.19,8.1a5.042,5.042,0,0,0,1.133,4.069c2.49,2.915,7.854,2.92,8.9,2.892,15.513.179,31.343.066,46.654-.049l1.2-.008a71.607,71.607,0,0,0-2.488,14.362c-.136,74.079-.082,149.3-.031,222.039q.061,88.771.028,177.527c.031,3.053-.013,6.093-.051,9.132a181.614,181.614,0,0,0,.46,19.877l.049.493.343.355a34.149,34.149,0,0,0,8.743,6.552q13.579,7.782,27.225,15.654c16.648,9.587,33.867,19.5,50.878,29.132,3.628,1.52,3.9,5.04,3.914,10.246,0,1.379.008,2.682.13,3.908-.263,14.012-.2,28.422-.138,42.362.054,11.787.107,23.977-.033,35.965-.665,11.73-1.421,25.1,4.055,37.087l.741-.337-.739.347a47.423,47.423,0,0,0,42.285,27.167q75.983.1,151.946.046,86.383-.031,172.777.074h.591l.417-.416q56.057-56.228,112.2-112.33l.4-.4.018-.565c.184-6.391.184-12.877.187-19.154,0-7.183,0-14.609.281-21.9q16.616-9.491,33.164-19.138c18.282-10.6,37.188-21.563,55.965-31.983l.624-.345.095-.708a184.545,184.545,0,0,0,1.49-31.229q-.069-129.491,0-259.067c.253-21.282-.054-42.924-.355-63.853-.317-21.974-.642-44.691-.314-67.028a66.846,66.846,0,0,0-2.36-23.9q5.319.031,10.64.092c11.76.117,23.924.24,35.889-.2a6.893,6.893,0,0,0,7.25-5.063A7.424,7.424,0,0,0,771.11.991l-.527-.174A103.547,103.547,0,0,0,757.57,0C755.929,0,754.288.036,752.652.117ZM95.427,25.535c-3.871-3.352-7.849-6.8-11.673-10.338,202.376-.189,407.959-.151,611.168.095q-14.756,13.17-29.551,26.3c-65.55,57.758-132.089,116.29-197.77,173.971-2.894,2.526-5.888,5.155-9.654,4.493l-34.516-.005c-35.247.026-71.688.043-107.528-.1-33.417-29.8-67.628-59.8-100.72-88.818-33.4-29.285-67.935-59.572-101.641-89.636l-.455-.406-.516.043C107.1,35.638,101.169,30.506,95.427,25.535ZM70.5,258.7c.043-68.408.092-139.132-.171-208.72l.514-.3-.041-.853a226.1,226.1,0,0,1,.13-24.092c4.469,3.615,8.807,7.485,13.018,11.248q2.987,2.667,5.993,5.306c24.735,21.312,49.633,43.261,73.71,64.484q19.224,16.952,38.491,33.86c13.414,11.958,27.184,23.979,40.5,35.613,19.808,17.3,40.276,35.176,60.012,53.211-34.91,31.27-70.154,63.283-104.246,94.252-41.764,37.94-84.926,77.147-127.835,115.311C70.421,378.208,70.462,317.474,70.5,258.7Zm405.568-30.414C546.44,165.924,618.031,102.917,688.881,40.975c2.114-1.8,4.229-3.63,6.34-5.456,4.1-3.533,8.3-7.165,12.55-10.683.156,5.9.2,11.848.238,17.629l.059,7.423c-.187,60.466-.146,121.958-.1,181.427.049,67.756.1,137.783-.194,206.725Q591.9,333.183,476.069,228.285Zm-20.836,6.547a12.246,12.246,0,0,1,9.743,3.571q30.046,27.106,59.857,54.233C554.967,320.008,586.123,348.3,617,375.888v8.834c.095,49.169.095,99.029,0,148.191-.02,3.382-.023,6.764-.01,10.164q-34.521-.069-69-.066A39.582,39.582,0,0,0,519.8,552.8c-6.115,5.405-8.884,13.013-11.561,20.375l-.522,1.425,0,.261c.2,19.7.151,39.723.11,59.091l-.036,18.03c-98.831-.069-199.027-.069-297.828,0-2.24-.049-4.563-.013-6.908.031-9.063.153-18.435.314-25.941-4.826l-.805,1.172v0l.744-1.213a31.667,31.667,0,0,1-15.033-27.676q.031-49.744-.008-99.417-.027-67.911.031-135.832c.02-2.8.066-5.6.113-8.427q24.819-22.454,49.587-44.96c34.761-31.551,70.7-64.177,106.3-95.986q34.582-.038,69.147-.01,15.542,0,31.085.005Q436.759,234.848,455.233,234.832ZM118.648,478.667c-13.954-8.052-28.362-16.369-42.664-24.421,8.866-8.218,18.111-16.27,27.069-24.069,14.419-12.556,29.3-25.515,42.945-39.475,1.406,12.6,1.314,25.456,1.222,37.922-.033,4.884-.066,9.766-.02,14.645-.046,6.136-.018,12.295.01,18.456.051,10.887.1,22.122-.3,33.2Q132.755,486.843,118.648,478.667Zm513.335-26.848c.013-14.5.028-29.489-.133-44.234a111.055,111.055,0,0,1,1.4-16.012,125.423,125.423,0,0,0,12.105,11.409c2.536,2.189,5.162,4.45,7.606,6.787,9.05,8.844,18.773,17.266,28.173,25.407,7.133,6.177,14.491,12.553,21.526,19.085-9.089,5.3-18.233,10.5-27.375,15.71-14.222,8.1-28.9,16.461-43.18,25.057C631.952,480.608,631.967,465.984,631.983,451.819ZM522.659,615.988c.02-8.279.046-16.839-.074-25.259v-2.613c-.015-6.936-.028-14.111,3.554-20.012a23.845,23.845,0,0,1,21.508-10.428c8.925.064,17.753.064,26.586.066,10.643,0,21.613,0,32.466.112Q594.335,570.2,582,582.572c-19.374,19.407-39.384,39.45-59.258,59.061C522.613,633.06,522.636,624.4,522.659,615.988ZM227.879,344.843a8.516,8.516,0,1,0,0,17.031H526.144a8.516,8.516,0,1,0,0-17.031Zm198.843,73.8a8.516,8.516,0,1,0,0,17.031H571.594a8.516,8.516,0,1,0,0-17.031Zm-198.843,0a8.516,8.516,0,1,0,0,17.031H384.112a8.516,8.516,0,1,0,0-17.031Zm247.134,73.8a8.516,8.516,0,1,0,0,17.031h96.581a8.516,8.516,0,1,0,0-17.031Zm-247.134,0a8.516,8.516,0,1,0,0,17.031h181.8a8.516,8.516,0,1,0,0-17.031Zm0,73.8a8.514,8.514,0,1,0,0,17.029H369.911a8.514,8.514,0,1,0,0-17.029Z" transform="translate(1815 9945.992) rotate(180)" opacity="0.2" fill="url(#linear-gradient)"/>
    <path id="Union_4" data-name="Union 4" d="M264.961.041C178.222-.01,90.241.009,3.485.091a3.632,3.632,0,0,0-3.02.982,1.92,1.92,0,0,0-.4,1.78,1.777,1.777,0,0,0,.4,1.434C1.342,5.314,3.231,5.315,3.6,5.305c5.461.063,11.034.023,16.424-.017l.423,0a25.246,25.246,0,0,0-.876,5.06c-.048,26.1-.029,52.6-.011,78.228q.022,31.275.01,62.545c.011,1.076,0,2.146-.018,3.217a64.036,64.036,0,0,0,.162,7l.017.174.121.125a12.022,12.022,0,0,0,3.078,2.308q4.78,2.742,9.584,5.515c5.861,3.378,11.922,6.871,17.911,10.264,1.277.536,1.373,1.776,1.378,3.61,0,.486,0,.945.046,1.377-.093,4.936-.069,10.013-.049,14.925.019,4.153.038,8.447-.012,12.671-.234,4.133-.5,8.842,1.427,13.066l.261-.119-.26.122A16.694,16.694,0,0,0,68.1,234.949q26.749.035,53.491.016,30.41-.011,60.824.026h.208l.147-.147q19.734-19.81,39.5-39.576l.141-.139.006-.2c.065-2.252.065-4.537.066-6.748,0-2.531,0-5.147.1-7.717q5.85-3.344,11.675-6.743c6.436-3.733,13.091-7.6,19.7-11.268l.22-.122.033-.249a65.07,65.07,0,0,0,.525-11q-.024-45.622,0-91.273c.089-7.5-.019-15.123-.125-22.5-.112-7.742-.226-15.745-.111-23.615a23.569,23.569,0,0,0-.831-8.42q1.872.011,3.746.032c4.14.041,8.422.085,12.634-.07A2.427,2.427,0,0,0,272.6,3.455,2.616,2.616,0,0,0,271.459.349l-.185-.061A36.422,36.422,0,0,0,266.693,0C266.115,0,265.537.013,264.961.041ZM33.594,9C32.231,7.816,30.831,6.6,29.484,5.354c71.244-.067,143.617-.053,215.154.033q-5.195,4.64-10.4,9.266C211.159,35,187.735,55.624,164.613,75.946c-1.019.89-2.073,1.816-3.4,1.583l-12.151,0c-12.408.009-25.237.015-37.854-.035C99.446,67,87.4,56.425,75.753,46.2,63.995,35.883,51.837,25.213,39.971,14.62l-.16-.143-.182.015C37.7,12.556,35.615,10.748,33.594,9ZM24.819,91.144c.015-24.1.032-49.019-.06-73.535l.181-.107-.014-.3a79.72,79.72,0,0,1,.046-8.488c1.573,1.273,3.1,2.637,4.583,3.963q1.052.94,2.11,1.869c8.707,7.509,17.473,15.241,25.949,22.719q6.768,5.972,13.55,11.93c4.722,4.213,9.57,8.448,14.258,12.547,6.973,6.095,14.179,12.393,21.127,18.747-12.289,11.017-24.7,22.3-36.7,33.206-14.7,13.367-29.9,27.18-45,40.626C24.791,133.249,24.805,111.851,24.819,91.144ZM167.594,80.428c24.773-21.971,49.976-44.169,74.918-65.992.744-.635,1.489-1.279,2.232-1.922,1.442-1.245,2.923-2.524,4.418-3.764.055,2.077.069,4.174.084,6.211l.021,2.615c-.066,21.3-.051,42.968-.036,63.92.017,23.872.034,48.543-.068,72.832Q208.37,117.386,167.594,80.428Zm-7.335,2.307a4.309,4.309,0,0,1,3.43,1.258q10.577,9.55,21.072,19.107c10.608,9.643,21.577,19.611,32.446,29.331v3.112c.033,17.323.033,34.889,0,52.21-.007,1.192-.008,2.383,0,3.581q-12.153-.024-24.291-.023a13.928,13.928,0,0,0-9.923,3.451c-2.153,1.9-3.128,4.585-4.07,7.178l-.184.5v.092c.069,6.939.053,13.995.039,20.819l-.013,6.352c-34.792-.024-70.065-.024-104.846,0-.788-.017-1.606,0-2.432.011-3.19.054-6.49.111-9.132-1.7l-.284.413h0l.262-.427a11.159,11.159,0,0,1-5.292-9.751q.011-17.526,0-35.026-.009-23.926.011-47.856c.007-.988.023-1.972.04-2.969q8.737-7.911,17.456-15.84c12.237-11.116,24.889-22.611,37.423-33.817q12.174-.014,24.342,0l10.943,0Q153.756,82.741,160.259,82.735ZM41.769,168.642c-4.912-2.837-9.985-5.767-15.019-8.6,3.121-2.9,6.376-5.732,9.529-8.48,5.076-4.423,10.316-8.989,15.118-13.908a113.422,113.422,0,0,1,.43,13.36c-.012,1.721-.023,3.441-.007,5.16-.016,2.162-.006,4.332,0,6.5.018,3.836.037,7.794-.1,11.7Q46.735,171.522,41.769,168.642Zm180.713-9.459c0-5.108.01-10.39-.047-15.584a39.154,39.154,0,0,1,.493-5.641,44.167,44.167,0,0,0,4.262,4.019c.893.771,1.817,1.568,2.677,2.391,3.186,3.116,6.609,6.083,9.918,8.951,2.511,2.176,5.1,4.423,7.578,6.724-3.2,1.866-6.419,3.7-9.637,5.535-5.007,2.853-10.175,5.8-15.2,8.828C222.471,169.326,222.476,164.173,222.481,159.183ZM184,217.022c.007-2.917.016-5.933-.026-8.9V207.2c-.005-2.443-.01-4.972,1.251-7.051a8.392,8.392,0,0,1,7.572-3.674c3.142.023,6.25.023,9.359.023,3.747,0,7.609,0,11.429.04q-4.352,4.351-8.695,8.708c-6.82,6.837-13.865,13.9-20.861,20.808C183.979,223.037,183.987,219.986,184,217.022ZM80.222,121.494a3,3,0,0,0,0,6h105a3,3,0,0,0,0-6Zm70,26a3,3,0,0,0,0,6h51a3,3,0,0,0,0-6Zm-70,0a3,3,0,0,0,0,6h55a3,3,0,1,0,0-6Zm87,26a3,3,0,0,0,0,6h34a3,3,0,0,0,0-6Zm-87,0a3,3,0,0,0,0,6h64a3,3,0,1,0,0-6Zm0,26a3,3,0,1,0,0,6h50a3,3,0,0,0,0-6Z" transform="translate(1565 9729.992) rotate(180)" fill="#fff" stroke="rgba(0,0,0,0)" stroke-miterlimit="10" stroke-width="1"/>
  </g>
</svg>
